<?xml version="1.0" encoding="UTF-8" standalone="no"?>
<svg
   xmlns:dc="http://purl.org/dc/elements/1.1/"
   xmlns:cc="http://creativecommons.org/ns#"
   xmlns:rdf="http://www.w3.org/1999/02/22-rdf-syntax-ns#"
   xmlns:svg="http://www.w3.org/2000/svg"
   xmlns="http://www.w3.org/2000/svg"
   xmlns:sodipodi="http://sodipodi.sourceforge.net/DTD/sodipodi-0.dtd"
   xmlns:inkscape="http://www.inkscape.org/namespaces/inkscape"
   width="253.5043mm"
   height="229.15294mm"
   version="1.1"
   viewBox="0 0 898.23472 811.95121"
   id="svg256"
   sodipodi:docname="statistic.svg"
   inkscape:version="0.92.0 r15299">
  <metadata
     id="metadata262">
    <rdf:RDF>
      <cc:Work
         rdf:about="">
        <dc:format>image/svg+xml</dc:format>
        <dc:type
           rdf:resource="http://purl.org/dc/dcmitype/StillImage" />
        <dc:title></dc:title>
      </cc:Work>
    </rdf:RDF>
  </metadata>
  <defs
     id="defs260" />
  <sodipodi:namedview
     pagecolor="#ffffff"
     bordercolor="#666666"
     borderopacity="1"
     objecttolerance="10"
     gridtolerance="10"
     guidetolerance="10"
     inkscape:pageopacity="0"
     inkscape:pageshadow="2"
     inkscape:window-width="1920"
     inkscape:window-height="1027"
     id="namedview258"
     showgrid="false"
     fit-margin-top="0"
     fit-margin-left="0"
     fit-margin-right="0"
     fit-margin-bottom="0"
     inkscape:zoom="0.31377553"
     inkscape:cx="235.89234"
     inkscape:cy="524.79807"
     inkscape:window-x="-8"
     inkscape:window-y="22"
     inkscape:window-maximized="1"
     inkscape:current-layer="svg256" />
  <g
     transform="translate(-69.519524,-8.9828997)"
     id="g254">
    <rect
       x="69.519524"
       y="8.9828997"
       width="898.23468"
       height="811.95117"
       id="rect2"
       style="fill:#81d4fa;fill-rule:evenodd"
       ry="0" />
    <g
       transform="matrix(2.815,0,0,2.815,1490.3,-1608.5)"
       id="g252">
      <g
         transform="translate(-624.49,-26.865)"
         id="g14"
         style="fill-rule:evenodd">
        <path
           d="m 215.28,862.72 h 127.01 c 0.68904,0 1.501,-0.60452 1.2437,-1.2436 l -6.2161,-15.436 c -0.25721,-0.63907 -2.8857,-1.2436 -3.5746,-1.2436 h -109.91 c -0.68893,0 -3.3172,0.60454 -3.5746,1.2436 l -6.216,15.436 c -0.25733,0.63909 0.55472,1.2436 1.2436,1.2436 z"
           id="path4"
           inkscape:connector-curvature="0"
           style="fill:#1a1a1a" />
        <path
           d="m 268.5,808.47 h 20.557 v 39.579 c -6.4431,2.6791 -13.142,3.0876 -20.557,0 z"
           id="path6"
           inkscape:connector-curvature="0"
           style="fill:#333333" />
        <path
           d="m 287.15,808.47 h 1.9127 v 39.321 c -0.37844,0.47028 -1.1358,1.0883 -1.93,1.0959 z"
           id="path8"
           inkscape:connector-curvature="0"
           style="fill:#212121" />
        <path
           d="m 215.28,862.72 h 127.01 c 0.68904,0 1.501,-0.12619 1.2437,-0.2596 l -6.2161,-3.2223 c -0.25721,-0.13342 -2.8857,-0.25961 -3.5746,-0.25961 h -109.91 c -0.68893,0 -3.3172,0.12619 -3.5746,0.25961 l -6.216,3.2223 c -0.25733,0.13341 0.55472,0.2596 1.2436,0.2596 z"
           id="path10"
           inkscape:connector-curvature="0"
           style="fill:#424242" />
        <rect
           transform="scale(1,-1)"
           x="135.2"
           y="-825.41998"
           width="287.17001"
           height="177.48"
           ry="12.307"
           id="rect12"
           style="fill:#ffffff" />
      </g>
      <rect
         x="-484.12"
         y="610.89001"
         width="276.62"
         height="164.86"
         id="rect16"
         style="fill:#b2dfdb;fill-rule:evenodd" />
      <rect
         x="-459.79999"
         y="612.75"
         width="228.17"
         height="162.99001"
         id="rect18"
         style="fill:#ffffff;fill-rule:evenodd" />
      <rect
         x="-459.79999"
         y="612.75"
         width="228.17"
         height="40.136002"
         id="rect20"
         style="fill:#ffca28;fill-rule:evenodd" />
      <rect
         x="-459.79999"
         y="757.20001"
         width="228.17"
         height="18.542"
         id="rect22"
         style="fill:#ffca28;fill-rule:evenodd" />
      <path
         d="m -489.34,606.02 v 177.31 h 287.25 V 606.02 Z m 6.7709,9.1634 h 272.46 v 158.25 h -272.46 z"
         id="path24"
         inkscape:connector-curvature="0"
         style="fill:#4d4d4d;fill-rule:evenodd" />
      <path
         transform="matrix(0.59285,-0.15477,0.15477,0.59285,-667.08,293.02)"
         d="m 227.61,756.47 -35.983,9.6417 -26.342,-26.342 9.6417,-35.983 35.983,-9.6417 26.342,26.342 z"
         id="path26"
         inkscape:connector-curvature="0"
         style="fill:#ffca28;fill-rule:evenodd" />
      <path
         transform="matrix(0.59285,-0.15477,0.15477,0.59285,-624.38,318)"
         d="m 227.61,756.47 -35.983,9.6417 -26.342,-26.342 9.6417,-35.983 35.983,-9.6417 26.342,26.342 z"
         id="path28"
         inkscape:connector-curvature="0"
         style="fill:#ffca28;fill-rule:evenodd" />
      <path
         transform="matrix(0.59285,-0.15477,0.15477,0.59285,-579.87,292.43)"
         d="m 227.61,756.47 -35.983,9.6417 -26.342,-26.342 9.6417,-35.983 35.983,-9.6417 26.342,26.342 z"
         id="path30"
         inkscape:connector-curvature="0"
         style="fill:#ffca28;fill-rule:evenodd" />
      <path
         transform="matrix(0.59285,-0.15477,0.15477,0.59285,-535.15,318)"
         d="m 227.61,756.47 -35.983,9.6417 -26.342,-26.342 9.6417,-35.983 35.983,-9.6417 26.342,26.342 z"
         id="path32"
         inkscape:connector-curvature="0"
         style="fill:#ffca28;fill-rule:evenodd" />
      <path
         transform="matrix(0.59285,-0.15477,0.15477,0.59285,-490.4,293.02)"
         d="m 227.61,756.47 -35.983,9.6417 -26.342,-26.342 9.6417,-35.983 35.983,-9.6417 26.342,26.342 z"
         id="path34"
         inkscape:connector-curvature="0"
         style="fill:#ffca28;fill-rule:evenodd" />
      <path
         transform="matrix(0.50009,-0.13055,0.13055,0.50009,-630.72,355.88)"
         d="m 227.61,756.47 -35.983,9.6417 -26.342,-26.342 9.6417,-35.983 35.983,-9.6417 26.342,26.342 z"
         id="path36"
         inkscape:connector-curvature="0"
         style="fill:#ffffff;fill-rule:evenodd" />
      <path
         transform="matrix(0.50009,-0.13055,0.13055,0.50009,-588.03,380.86)"
         d="m 227.61,756.47 -35.983,9.6417 -26.342,-26.342 9.6417,-35.983 35.983,-9.6417 26.342,26.342 z"
         id="path38"
         inkscape:connector-curvature="0"
         style="fill:#ffffff;fill-rule:evenodd" />
      <path
         transform="matrix(0.50009,-0.13055,0.13055,0.50009,-543.52,355.28)"
         d="m 227.61,756.47 -35.983,9.6417 -26.342,-26.342 9.6417,-35.983 35.983,-9.6417 26.342,26.342 z"
         id="path40"
         inkscape:connector-curvature="0"
         style="fill:#ffffff;fill-rule:evenodd" />
      <path
         transform="matrix(0.50009,-0.13055,0.13055,0.50009,-498.8,380.86)"
         d="m 227.61,756.47 -35.983,9.6417 -26.342,-26.342 9.6417,-35.983 35.983,-9.6417 26.342,26.342 z"
         id="path42"
         inkscape:connector-curvature="0"
         style="fill:#ffffff;fill-rule:evenodd" />
      <path
         transform="matrix(0.50009,-0.13055,0.13055,0.50009,-454.05,355.88)"
         d="m 227.61,756.47 -35.983,9.6417 -26.342,-26.342 9.6417,-35.983 35.983,-9.6417 26.342,26.342 z"
         id="path44"
         inkscape:connector-curvature="0"
         style="fill:#ffffff;fill-rule:evenodd" />
      <g
         transform="translate(-624.96,-27.185)"
         id="g88"
         style="fill-rule:evenodd">
        <path
           d="m 277.19,707.62 c -6.8581,-0.0164 -13.108,5.8985 -13.429,12.76 -0.49776,6.3469 3.9941,12.71 10.217,14.204 6.134,1.657 13.206,-1.5502 15.839,-7.3737 2.8052,-5.7721 0.92914,-13.443 -4.4482,-17.05 -2.3668,-1.6812 -5.2763,-2.5792 -8.178,-2.5405 z"
           id="path46"
           inkscape:connector-curvature="0"
           style="fill:#ffffff" />
        <circle
           cx="277.42999"
           cy="721.31"
           r="12.653"
           id="circle48"
           style="fill:#f06292" />
        <path
           d="m 280.23,733.67 c -5.9888,1.1967 -12.296,-2.0008 -14.554,-7.6752 -2.2581,-5.6744 -0.14092,-12.152 5.0326,-15.397 5.1736,-3.2454 11.927,-2.3323 16.053,2.1704 l -9.0808,8.4864 z"
           id="path50"
           inkscape:connector-curvature="0"
           style="fill:#d32f2f" />
        <path
           d="m 279.91,733.72 a 12.653,12.653 0 0 1 -14.236,-7.7295 12.653,12.653 0 0 1 5.0326,-15.397 12.653,12.653 0 0 1 16.053,2.1704 l -9.329,8.5484 z"
           id="path52"
           inkscape:connector-curvature="0"
           style="fill:#e53935" />
        <path
           d="m 273.75,733.43 c -5.0408,-1.6476 -8.7675,-6.3568 -8.9618,-11.656 -0.19432,-5.2997 2.9368,-10.158 7.8434,-12.171 4.9066,-2.0124 10.548,-0.75145 14.13,3.1585 l -9.1739,8.5174 z"
           id="path54"
           inkscape:connector-curvature="0"
           style="fill:#d84315" />
        <path
           d="m 273.5,733.34 a 12.653,12.653 0 0 1 -8.7137,-11.563 12.653,12.653 0 0 1 7.8434,-12.171 12.653,12.653 0 0 1 14.13,3.1585 l -9.329,8.5484 z"
           id="path56"
           inkscape:connector-curvature="0"
           style="fill:#f4511e" />
        <path
           d="m 266.54,714.87 a 12.653,12.653 0 0 1 11.73,-6.1844 12.653,12.653 0 0 1 10.809,7.6814 l -11.647,4.944 z"
           id="path58"
           inkscape:connector-curvature="0"
           style="fill:#cddc39" />
        <path
           d="m 266.54,714.87 a 12.653,12.653 0 0 1 11.73,-6.1844 12.653,12.653 0 0 1 10.809,7.6814 l -11.647,4.944 z"
           id="path60"
           inkscape:connector-curvature="0"
           style="fill:#cddc39" />
        <path
           d="m 266.54,714.87 a 12.653,12.653 0 0 1 11.73,-6.1844 12.653,12.653 0 0 1 10.809,7.6814 l -11.647,4.944 z"
           id="path62"
           inkscape:connector-curvature="0"
           style="fill:#cddc39" />
        <path
           d="m 266.54,714.87 a 12.653,12.653 0 0 1 11.73,-6.1844 12.653,12.653 0 0 1 10.809,7.6814 l -11.647,4.944 z"
           id="path64"
           inkscape:connector-curvature="0"
           style="fill:#cddc39" />
        <path
           d="m 266.54,714.87 a 12.653,12.653 0 0 1 11.73,-6.1844 12.653,12.653 0 0 1 10.809,7.6814 l -11.647,4.944 z"
           id="path66"
           inkscape:connector-curvature="0"
           style="fill:#cddc39" />
        <path
           d="m 266.54,714.87 a 12.653,12.653 0 0 1 11.73,-6.1844 12.653,12.653 0 0 1 10.809,7.6814 l -11.647,4.944 z"
           id="path68"
           inkscape:connector-curvature="0"
           style="fill:#cddc39" />
        <path
           d="m 266.54,714.87 a 12.653,12.653 0 0 1 11.73,-6.1844 12.653,12.653 0 0 1 10.809,7.6814 l -11.647,4.944 z"
           id="path70"
           inkscape:connector-curvature="0"
           style="fill:#cddc39" />
        <path
           d="m 266.54,714.87 a 12.653,12.653 0 0 1 11.73,-6.1844 12.653,12.653 0 0 1 10.809,7.6814 l -11.647,4.944 z"
           id="path72"
           inkscape:connector-curvature="0"
           style="fill:#cddc39" />
        <path
           d="m 266.54,714.87 a 12.653,12.653 0 0 1 11.73,-6.1844 12.653,12.653 0 0 1 10.809,7.6814 l -11.647,4.944 z"
           id="path74"
           inkscape:connector-curvature="0"
           style="fill:#cddc39" />
        <path
           d="m 266.12,715.61 c 2.4302,-4.1092 7.3849,-7.2374 12.148,-6.921 4.7635,0.31639 8.9434,3.2869 10.809,7.6814 l -12.117,5.5286 z"
           id="path76"
           inkscape:connector-curvature="0"
           style="fill:#e64a19" />
        <path
           d="m 266.32,715.15 c 2.4302,-4.1092 7.1833,-6.7799 11.947,-6.4635 4.7635,0.31639 8.9434,3.2869 10.809,7.6814 l -11.678,5.0681 z"
           id="path78"
           inkscape:connector-curvature="0"
           style="fill:#c0ca33" />
        <path
           d="m 275.85,708.76 c 3.5407,-0.32222 7.4921,0.81613 10.118,3.2135 2.6254,2.3973 4.1211,5.7886 4.1211,9.3439 l -12.807,0.0219 z"
           id="path80"
           inkscape:connector-curvature="0"
           style="fill:#afb42b" />
        <path
           d="m 276.29,708.71 c 3.5406,-0.32222 7.0535,0.85999 9.6789,3.2573 2.6254,2.3973 4.1083,6.2442 4.1083,9.7995 l -12.597,-0.17056 z"
           id="path82"
           inkscape:connector-curvature="0"
           style="fill:#ec407a" />
        <path
           d="m 276.29,708.71 a 12.653,12.653 0 0 1 9.6789,3.2573 12.653,12.653 0 0 1 4.1211,9.3439 h -12.653 z"
           id="path84"
           inkscape:connector-curvature="0"
           style="fill:#cddc39" />
        <circle
           cx="277.41"
           cy="721.31"
           r="4.9559999"
           id="circle86"
           style="fill:#ffffff" />
      </g>
      <g
         transform="matrix(0.084695,0,0,0.04984,-393.88,670.97)"
         id="g108"
         style="fill:#b3b3b3">
        <path
           d="m -470.23,457.93 v -56.918 l 46.972,-50.897 v 120.4 z"
           id="path90"
           inkscape:connector-curvature="0" />
        <path
           d="m -479.32,457.85 v -57.255 l -46.972,-51.199 v 121.12 z"
           id="path92"
           inkscape:connector-curvature="0" />
        <path
           d="m -427.29,455.36 h -95.459 l -73.236,74.143 76.267,84.451 h 95.459 l 71.216,-83.843 z"
           id="path94"
           inkscape:connector-curvature="0" />
        <path
           d="m -427.29,455.36 h -47.348 l 2.8571,158.59 h 47.522 l 71.216,-83.843 z"
           id="path96"
           inkscape:connector-curvature="0" />
        <circle
           cx="-500.28"
           cy="535.91998"
           r="13.89"
           id="circle98"
           style="fill-rule:evenodd" />
        <circle
           transform="translate(52.023)"
           cx="-500.28"
           cy="535.91998"
           r="13.89"
           id="circle100"
           style="fill-rule:evenodd" />
        <circle
           transform="matrix(0.7089,0,0,0.56364,-117.94,257.6)"
           cx="-500.28"
           cy="535.91998"
           r="13.89"
           id="circle102"
           style="fill-rule:evenodd" />
        <circle
           transform="matrix(0.3,0,0,0.3,-355.88,370.73)"
           cx="-500.28"
           cy="535.91998"
           r="13.89"
           id="circle104"
           style="fill-rule:evenodd" />
        <circle
           transform="matrix(0.3,0,0,0.3,-303.6,370.98)"
           cx="-500.28"
           cy="535.91998"
           r="13.89"
           id="circle106"
           style="fill-rule:evenodd" />
      </g>
      <path
         d="m -449,686.28 14.164,-8.3338 14.164,8.3338 c 0.19573,0.11516 0.40991,0.18282 0.40991,0.40991 v 16.333 c 0,0.22709 -0.18282,0.40991 -0.40991,0.40991 l -14.164,8.0812 -14.164,-8.0812 c -0.19725,-0.11254 -0.40991,-0.18282 -0.40991,-0.40991 v -16.333 c 0,-0.22709 0.18282,-0.40991 0.40991,-0.40991 z"
         id="path110"
         inkscape:connector-curvature="0"
         style="fill:#ffeb3b;fill-rule:evenodd" />
      <path
         d="m -445.24,696.43 6.4346,1.9992 8.6015,-6.9284 4.8742,3.2612 c 0.28974,0.19385 5.0616,-5.5724 5.0616,-5.3453 v 13.615 c 0,0.22709 -0.19114,0.39253 -0.52359,0.58848 l -14.051,8.2815 -13.957,-8.3416 c -0.33124,-0.19798 -0.61765,-0.3012 -0.61765,-0.52829 v -3.6986 c 0,-0.22709 3.8115,-3.0163 4.1765,-2.9029 z"
         id="path112"
         inkscape:connector-curvature="0"
         style="fill:#00ccff;fill-rule:evenodd" />
      <rect
         transform="matrix(-0.75791,0.65235,0.90064,0.43456,0,0)"
         x="894.04999"
         y="259.59"
         width="1.1047"
         height="5.8607001"
         ry="0.43500999"
         id="rect114"
         style="fill:#ffffff;fill-rule:evenodd" />
      <path
         d="m -445.2,695.68 c -0.11844,0.0138 -0.23967,0.0539 -0.33581,0.11773 l -4.702,3.1213 v 1.2375 c 0.0605,-0.0201 0.11827,-0.0467 0.16891,-0.0804 l 5.6194,-3.7303 c 0.19229,-0.12768 0.2099,-0.29972 0.0392,-0.38581 l -0.47055,-0.23747 c -0.0853,-0.0431 -0.20082,-0.0561 -0.31923,-0.0427 z"
         id="path116"
         inkscape:connector-curvature="0"
         style="fill:#ffffff;fill-rule:evenodd" />
      <ellipse
         cx="-438.82999"
         cy="698.35999"
         rx="1.5838"
         ry="0.93199003"
         id="ellipse118"
         style="fill:#ffffff;fill-rule:evenodd" />
      <rect
         transform="matrix(0.94196,0.33571,-0.75711,0.65329,0,0)"
         x="278.12"
         y="914.46002"
         width="1.2984999"
         height="11.825"
         ry="0.39021999"
         id="rect120"
         style="fill:#ffffff;fill-rule:evenodd" />
      <rect
         transform="matrix(-0.91132,0.41169,0.80692,0.59066,0,0)"
         x="932.21002"
         y="520.19"
         width="1.2876"
         height="5.2961998"
         ry="0.39311001"
         id="rect122"
         style="fill:#ffffff;fill-rule:evenodd" />
      <path
         d="m -419.6,687.33 c -0.0989,0.0159 -0.18515,0.0522 -0.23727,0.10894 l -5.8647,6.3796 c -0.11492,0.12486 -0.0234,0.29461 0.20434,0.3805 l 0.62871,0.23685 c 0.22801,0.086 0.504,0.0546 0.61877,-0.0703 l 4.3455,-4.727 0.30465,-2.3086 z"
         id="path124"
         inkscape:connector-curvature="0"
         style="fill:#ffffff;fill-rule:evenodd" />
      <circle
         cx="-445.22"
         cy="696.10999"
         r="1.5625"
         id="circle126"
         style="fill:#ffffff;fill-rule:evenodd" />
      <circle
         cx="-445.22"
         cy="696.10999"
         r="1.1384"
         id="circle128"
         style="fill:#29b6f6;fill-rule:evenodd" />
      <circle
         cx="-438.89001"
         cy="698.62"
         r="1.5625"
         id="circle130"
         style="fill:#ffffff;fill-rule:evenodd" />
      <circle
         cx="-438.89001"
         cy="698.62"
         r="1.1384"
         id="circle132"
         style="fill:#29b6f6;fill-rule:evenodd" />
      <circle
         cx="-430.19"
         cy="691.25"
         r="1.5625"
         id="circle134"
         style="fill:#ffffff;fill-rule:evenodd" />
      <circle
         cx="-430.19"
         cy="691.25"
         r="1.1384"
         id="circle136"
         style="fill:#29b6f6;fill-rule:evenodd" />
      <circle
         cx="-425.51999"
         cy="694.84998"
         r="1.5625"
         id="circle138"
         style="fill:#ffffff;fill-rule:evenodd" />
      <circle
         cx="-425.51999"
         cy="694.84998"
         r="1.1384"
         id="circle140"
         style="fill:#29b6f6;fill-rule:evenodd" />
      <g
         transform="matrix(0.14216,0,0,0.14216,-450.35,674.73)"
         id="g150"
         style="fill:#ffffff;fill-rule:evenodd">
        <rect
           x="1269.4"
           y="138.7"
           width="27.677"
           height="74.867996"
           ry="4.1160998"
           id="rect142" />
        <rect
           x="1308.2"
           y="108.39"
           width="27.677"
           height="105.17"
           ry="5.7821999"
           id="rect144" />
        <rect
           x="1346.9"
           y="89.570999"
           width="27.677"
           height="123.99"
           ry="5.0490999"
           id="rect146" />
        <rect
           x="1388.4"
           y="54.215"
           width="27.677"
           height="159.35001"
           ry="4.9726"
           id="rect148" />
      </g>
      <rect
         x="-268.95001"
         y="693.21997"
         width="3.9346001"
         height="10.643"
         ry="0.58515"
         id="rect152"
         style="fill:#3f51b5;fill-rule:evenodd" />
      <rect
         x="-263.44"
         y="688.90997"
         width="3.9346001"
         height="14.952"
         ry="0.82200003"
         id="rect154"
         style="fill:#3f51b5;fill-rule:evenodd" />
      <rect
         x="-257.92999"
         y="686.23999"
         width="3.9346001"
         height="17.627001"
         ry="0.71779001"
         id="rect156"
         style="fill:#3f51b5;fill-rule:evenodd" />
      <rect
         x="-252.05"
         y="681.21002"
         width="3.9346001"
         height="22.653"
         ry="0.7069"
         id="rect158"
         style="fill:#3f51b5;fill-rule:evenodd" />
      <circle
         cx="-306.31"
         cy="715.40997"
         r="7.3003998"
         id="circle160"
         style="fill:#673ab7;fill-opacity:0.64246;fill-rule:evenodd" />
      <circle
         cx="-304.70001"
         cy="724.23999"
         r="7.3003998"
         id="circle162"
         style="fill:#ff0000;fill-opacity:0.66480001;fill-rule:evenodd" />
      <circle
         cx="-298.13"
         cy="719.26001"
         r="7.3003998"
         id="circle164"
         style="fill:#4fc3f7;fill-opacity:0.68155996;fill-rule:evenodd" />
      <g
         transform="matrix(1.0528,0,0,1.0528,-637.58,-66.497)"
         id="g202"
         style="fill-rule:evenodd">
        <path
           d="m 239.86,735.52 -3.2234,5.583 c 0.70949,0.78538 2.5965,4.0822 2.9715,5.1785 l 6.4383,-1.2e-4 c -0.54014,-1.9743 -4.8985,-9.5827 -6.1864,-10.761 z"
           id="path166"
           inkscape:connector-curvature="0"
           style="fill:#ffc107" />
        <path
           d="m 239.4,735.29 c -1.9783,-0.5197 -10.749,-0.54958 -12.413,-0.0232 l 3.2235,5.583 c 1.0336,-0.22181 4.8344,-0.20784 5.9703,0.0161 l 3.2191,-5.5757 z"
           id="path168"
           inkscape:connector-curvature="0"
           style="fill:#689f38" />
        <path
           d="m 246.08,746.8 -6.4467,-1.5e-4 c -0.32557,1.0072 -2.2369,4.2894 -2.999,5.1625 l 3.2192,5.5756 c 1.4398,-1.4551 5.8495,-9.0331 6.2265,-10.738 z"
           id="path170"
           inkscape:connector-curvature="0"
           style="fill:#03a9f4" />
        <path
           d="m 226.56,735.55 c -1.4396,1.4548 -5.8494,9.0334 -6.2264,10.738 l 6.4465,3e-5 c 0.32535,-1.007 2.2368,-4.2896 2.9988,-5.1629 l -3.2189,-5.5755 z"
           id="path172"
           inkscape:connector-curvature="0"
           style="fill:#f44336" />
        <path
           d="m 226.8,746.8 h -6.4385 c 0.53994,1.974 4.8988,9.5826 6.1867,10.761 l 3.2232,-5.5828 c -0.70939,-0.78532 -2.5962,-4.0818 -2.9715,-5.1784 z"
           id="path174"
           inkscape:connector-curvature="0"
           style="fill:#9c27b0" />
        <path
           d="m 236.19,752.23 c -1.0336,0.22182 -4.8342,0.2079 -5.9701,-0.0161 l -3.2193,5.576 c 1.9784,0.51974 10.749,0.54948 12.413,0.0232 l -3.2234,-5.5832 z"
           id="path176"
           inkscape:connector-curvature="0"
           style="fill:#cddc39" />
        <circle
           cx="223.08"
           cy="740.83002"
           r="1.8432"
           id="circle178"
           style="fill:#ffffff" />
        <circle
           cx="223.08"
           cy="740.83002"
           r="1.3128"
           id="circle180"
           style="fill:#f44336" />
        <circle
           cx="233.17"
           cy="735.07001"
           r="1.8432"
           id="circle182"
           style="fill:#ffffff" />
        <circle
           cx="233.17"
           cy="735.07001"
           r="1.3128"
           id="circle184"
           style="fill:#689f38" />
        <circle
           cx="243.05"
           cy="740.5"
           r="1.8432"
           id="circle186"
           style="fill:#ffffff" />
        <circle
           cx="243.05"
           cy="740.5"
           r="1.3128"
           id="circle188"
           style="fill:#ffc107" />
        <circle
           cx="243.38"
           cy="752.45001"
           r="1.8432"
           id="circle190"
           style="fill:#ffffff" />
        <circle
           cx="243.38"
           cy="752.45001"
           r="1.3128"
           id="circle192"
           style="fill:#03a9f4" />
        <circle
           cx="233.17"
           cy="758.41998"
           r="1.8432"
           id="circle194"
           style="fill:#ffffff" />
        <circle
           cx="233.17"
           cy="758.41998"
           r="1.3128"
           id="circle196"
           style="fill:#cddc39" />
        <circle
           cx="223.07001"
           cy="752.45001"
           r="1.8432"
           id="circle198"
           style="fill:#ffffff" />
        <circle
           cx="223.07001"
           cy="752.45001"
           r="1.3128"
           id="circle200"
           style="fill:#9c27b0" />
      </g>
      <rect
         x="-448.42001"
         y="623"
         width="55"
         height="23.214001"
         ry="2.8931"
         id="rect204"
         style="fill:#ffa000;fill-rule:evenodd" />
      <rect
         x="-385.20999"
         y="623"
         width="148.21001"
         height="23.214001"
         ry="2.8931"
         id="rect206"
         style="fill:#ffa000;fill-rule:evenodd" />
      <g
         transform="matrix(0.10331,0,0,0.10331,-425.74,734.84)"
         id="g210">
        <polygon
           points="845,272.02 809.82,307.22 817.47,314.87 852.65,279.68 "
           id="polygon208"
           style="fill:#456fd8" />
      </g>
      <g
         transform="matrix(0.10331,0,0,0.10331,-425.74,734.84)"
         id="g214">
        <polygon
           points="851.65,278.68 816.47,313.87 825.12,322.52 860.3,287.33 "
           id="polygon212"
           style="fill:#567fe5" />
      </g>
      <g
         transform="matrix(0.10331,0,0,0.10331,-425.74,734.84)"
         id="g218">
        <polygon
           points="859.3,286.33 824.12,321.52 832.76,330.18 867.95,294.98 "
           id="polygon216"
           style="fill:#3258b6" />
      </g>
      <g
         transform="matrix(0.10331,0,0,0.10331,-425.74,734.84)"
         id="g222">
        <path
           d="m 874.06,279.68 -13.767,-13.773 c -2.534,-2.535 -6.643,-2.535 -9.178,0 l 22.944,22.955 c 2.55,-2.54 2.55,-6.65 0.01,-9.18 z"
           id="path220"
           inkscape:connector-curvature="0"
           style="fill:#ff72b1" />
      </g>
      <g
         transform="matrix(0.10331,0,0,0.10331,-425.74,734.84)"
         id="g226">
        <path
           d="m 875.06,287.86 -22.944,-22.955 c -0.422,-0.423 -1.106,-0.423 -1.529,0 l -5.589,5.591 c -0.422,0.423 -0.422,1.108 0,1.53 l 22.944,22.956 c 0.423,0.422 1.107,0.422 1.529,0 l 5.589,-5.592 c 0.43,-0.42 0.43,-1.11 0,-1.53 z"
           id="path224"
           inkscape:connector-curvature="0"
           style="fill:#c6c6c6" />
      </g>
      <g
         transform="matrix(0.10331,0,0,0.10331,-425.74,734.84)"
         id="g230"
         style="fill:#fafafa">
        <polygon
           points="832.76,330.18 809.82,307.22 806,334 "
           id="polygon228"
           style="fill:#fafafa" />
      </g>
      <g
         transform="matrix(0.10331,0,0,0.10331,-425.74,734.84)"
         id="g234">
        <polygon
           points="816.36,332.66 807.34,323.63 805,335 "
           id="polygon232"
           style="fill:#567fe5" />
      </g>
      <g
         transform="matrix(0.12759,0,0,0.12759,-393.03,742.39)"
         id="g246">
        <path
           d="m 840,187 c -18,0 -33,5.908 -33,28 0,3.313 2.687,6 6,6 h 54 c 3.313,0 6,-2.687 6,-6 0,-22.09 -15,-28 -33,-28 z"
           id="path236"
           inkscape:connector-curvature="0"
           style="fill:#44b2b6" />
        <polygon
           points="826,189 835,204 841,195 "
           id="polygon238"
           style="fill:#ffffff" />
        <polygon
           points="840,195 846,204 855,189 "
           id="polygon240"
           style="fill:#ffffff" />
        <circle
           cx="840"
           cy="177"
           r="18"
           id="circle242"
           style="fill:#f1cdb0" />
        <path
           d="m 858.61,173.17 c -0.127,-0.618 -0.283,-1.226 -0.469,-1.821 -2.4,-7.73 -9.61,-13.35 -18.14,-13.35 -0.564,0 -1.12,0.036 -1.672,0.084 -0.42,0.04 -0.837,0.096 -1.249,0.163 -0.062,0.01 -0.123,0.019 -0.184,0.028 -0.976,0.172 -1.927,0.417 -2.849,0.725 h -0.096 c -7.209,2.423 -12.47,9.043 -12.898,16.962 1.836,-0.44 3.753,-1.189 5.624,-2.27 3.179,-1.835 5.6,-4.254 6.995,-6.692 h 0.628 c 3.091,6.405 11.406,11 21.2,11 1.18,0 2.329,-0.087 3.46,-0.215 0.011,-0.263 0.04,-0.521 0.04,-0.785 0.01,-1.31 -0.12,-2.59 -0.38,-3.83 z"
           id="path244"
           inkscape:connector-curvature="0"
           style="fill:#ab6125" />
      </g>
      <rect
         x="-279.04999"
         y="764.02002"
         width="35.860001"
         height="5.3032999"
         ry="0.75761002"
         id="rect248"
         style="fill:#ffa000;fill-rule:evenodd" />
      <rect
         x="-332.63"
         y="764.02002"
         width="35.860001"
         height="5.3032999"
         ry="0.75761002"
         id="rect250"
         style="fill:#ffa000;fill-rule:evenodd" />
    </g>
  </g>
</svg>
